# xmcd
#
# Track frame offsets: 
#        150
#        19143
#        39933
#        61427
#        82729
#        95372
#        115820
#        142156
#        162122
#        180553
#        200034
#        218238
#        239423
#
# Disc length: 3459 seconds
#
# Revision: 1
# Processed by: cddbd v1.5.2PL0 Copyright (c) Steve Scherf et al.
# Submitted via: ExactAudioCopyFreeDBPlugin 1.0
#
DISCID=ae0d810d
DTITLE=群星【英】 - TEST-CD试音极品12CDB
DYEAR=2013
DGENRE=stereo
TTITLE0=Silent All These Years
TTITLE1=Winter in July
TTITLE2=Someone Like You
TTITLE3=Yes I Love You
TTITLE4=Crazy
TTITLE5=Un-break My Heart
TTITLE6=Superwoman
TTITLE7=Right Here Waiting
TTITLE8=Only Love
TTITLE9=Smooth Operator
TTITLE10=Vincent
TTITLE11=My Heart Will Go On
TTITLE12=I Will Always Love You
EXTD=
EXTT0=
EXTT1=
EXTT2=
EXTT3=
EXTT4=
EXTT5=
EXTT6=
EXTT7=
EXTT8=
EXTT9=
EXTT10=
EXTT11=
EXTT12=
PLAYORDER=
